<svg width="14" height="14" viewBox="0 0 14 14" fill="none" xmlns="http://www.w3.org/2000/svg">
<path d="M0 0H6.22222V1.55556H0V0ZM7.77778 0H14V1.55556H7.77778V0ZM0 3.11111H6.22222V4.66667H0V3.11111ZM7.77778 3.11111H14V4.66667H7.77778V3.11111ZM0 6.22222H6.22222V7.77778H0V6.22222ZM7.77778 6.22222H14V7.77778H7.77778V6.22222ZM0 9.33333H6.22222V10.8889H0V9.33333ZM7.77778 9.33333H14V10.8889H7.77778V9.33333ZM0 12.4444H6.22222V14H0V12.4444ZM7.77778 12.4444H14V14H7.77778V12.4444Z" fill="#283144"/>
</svg>
