<svg width="20" height="20" viewBox="0 0 20 20" fill="none" xmlns="http://www.w3.org/2000/svg">
<path d="M1.6665 14.1667V16.6667H8.33317V15.0917H3.24984V14.1667C3.24984 13.6334 5.85817 12.4167 8.33317 12.4167C9.13317 12.425 9.92484 12.5334 10.6915 12.7334L11.9582 11.4667C10.7915 11.075 9.58317 10.8584 8.33317 10.8334C6.10817 10.8334 1.6665 11.9417 1.6665 14.1667ZM8.33317 3.33337C6.4915 3.33337 4.99984 4.82504 4.99984 6.66671C4.99984 8.50837 6.4915 10 8.33317 10C10.1748 10 11.6665 8.50837 11.6665 6.66671C11.6665 4.82504 10.1748 3.33337 8.33317 3.33337ZM8.33317 8.33337C7.4165 8.33337 6.6665 7.59171 6.6665 6.66671C6.6665 5.74171 7.4165 5.00004 8.33317 5.00004C9.24984 5.00004 9.99984 5.75004 9.99984 6.66671C9.99984 7.58337 9.25817 8.33337 8.33317 8.33337ZM18.0832 11.125L17.2498 11.9584L15.5415 10.2917L16.3748 9.45837C16.5498 9.28337 16.8415 9.28337 17.0165 9.45837L18.0832 10.525C18.2582 10.7 18.2582 10.9917 18.0832 11.1667M9.99984 15.7834L15.0498 10.7334L16.7582 12.4L11.7582 17.4584H9.99984V15.7834Z" fill="black"/>
</svg>
