<svg width="32" height="32" viewBox="0 0 32 32" fill="none" xmlns="http://www.w3.org/2000/svg">
<g clip-path="url(#clip0_1860_1198)">
<path d="M32 0H0V32H32V0Z" fill="white"/>
<path d="M16.1402 21.07H12.1402V28.13H7.22021V3.87H16.1402C21.9002 3.87 24.7802 6.67667 24.7802 12.29C24.7802 15.1433 24.0535 17.32 22.6002 18.82C21.1469 20.32 18.9935 21.07 16.1402 21.07ZM12.1402 8.07V16.85H16.1402C18.5902 16.85 19.8102 15.32 19.8102 12.28C19.9133 11.1342 19.6049 9.98905 18.9402 9.05C18.5713 8.69406 18.1307 8.42078 17.6479 8.24835C17.1652 8.07593 16.6512 8.00831 16.1402 8.05L12.1402 8.07Z" fill="#010101"/>
<path d="M21.7502 28.13C23.4236 28.13 24.7802 26.7734 24.7802 25.1C24.7802 23.4266 23.4236 22.07 21.7502 22.07C20.0768 22.07 18.7202 23.4266 18.7202 25.1C18.7202 26.7734 20.0768 28.13 21.7502 28.13Z" fill="#94CA53"/>
</g>
<defs>
<clipPath id="clip0_1860_1198">
<rect width="32" height="32" fill="white"/>
</clipPath>
</defs>
</svg>
