<svg width="12" height="14" viewBox="0 0 12 14" fill="none" xmlns="http://www.w3.org/2000/svg">
<path d="M6 0L3 2.54545H5.25V8.27273H6.75V2.54545H9M10.5 14H1.5C0.6675 14 0 13.4273 0 12.7273V5.09091C0 4.75336 0.158035 4.42964 0.43934 4.19095C0.720644 3.95227 1.10218 3.81818 1.5 3.81818H3.75V5.09091H1.5V12.7273H10.5V5.09091H8.25V3.81818H10.5C10.8978 3.81818 11.2794 3.95227 11.5607 4.19095C11.842 4.42964 12 4.75336 12 5.09091V12.7273C12 13.0648 11.842 13.3885 11.5607 13.6272C11.2794 13.8659 10.8978 14 10.5 14Z" fill="#283144"/>
</svg>
