<svg width="20" height="20" viewBox="0 0 20 20" fill="none" xmlns="http://www.w3.org/2000/svg">
<path d="M18.3332 10.3416V3.33329C18.3332 2.41663 17.5915 1.66663 16.6665 1.66663H3.33317C2.4165 1.66663 1.6665 2.40829 1.6665 3.33329V18.3333L4.99984 15H7.7415C8.45817 17.4083 10.6915 19.1666 13.3332 19.1666C16.5498 19.1666 19.1665 16.5583 19.1665 13.3333C19.1665 12.2416 18.8582 11.2166 18.3332 10.3416ZM4.30817 13.3333L3.33317 14.3083V3.33329H16.6665V8.54996C15.7165 7.89163 14.5832 7.49996 13.3332 7.49996C11.7498 7.49996 10.3082 8.14163 9.25817 9.16663H4.99984V10.8333H8.07484C7.70817 11.5916 7.49984 12.4416 7.49984 13.3333H4.30817ZM13.3332 17.375C11.0998 17.375 9.2915 15.5666 9.2915 13.3333C9.2915 11.1 11.0998 9.29163 13.3332 9.29163C15.5582 9.29163 17.3748 11.1 17.3748 13.3333C17.3748 15.5666 15.5582 17.375 13.3332 17.375ZM14.9998 7.49996H4.99984V5.83329H14.9998V7.49996ZM13.7498 13.1833L15.7832 14.3583L15.1582 15.4416L12.4998 13.9083V10.8333H13.7498V13.1833Z" fill="black"/>
</svg>
