<svg width="20" height="20" viewBox="0 0 20 20" fill="none" xmlns="http://www.w3.org/2000/svg">
<path d="M9.1665 7.50004C9.1665 8.88337 8.04984 10 6.6665 10C5.28317 10 4.1665 8.88337 4.1665 7.50004C4.1665 6.11671 5.28317 5.00004 6.6665 5.00004C8.04984 5.00004 9.1665 6.11671 9.1665 7.50004ZM11.6665 16.6667H1.6665V15C1.6665 13.1584 3.90817 11.6667 6.6665 11.6667C9.42484 11.6667 11.6665 13.1584 11.6665 15M5.83317 7.50004C5.83317 7.95837 6.20817 8.33337 6.6665 8.33337C7.12484 8.33337 7.49984 7.95837 7.49984 7.50004C7.49984 7.04171 7.12484 6.66671 6.6665 6.66671C6.20817 6.66671 5.83317 7.04171 5.83317 7.50004ZM3.33317 15H9.99984C9.99984 14.0834 8.50817 13.3334 6.6665 13.3334C4.82484 13.3334 3.33317 14.0834 3.33317 15ZM18.3332 10V11.6667H10.8332V10M18.3332 6.66671V8.33337H10.8332V6.66671M18.3332 3.33337V5.00004H10.8332V3.33337H18.3332Z" fill="black"/>
</svg>
