<svg width="42" height="36" viewBox="0 0 42 36" fill="none" xmlns="http://www.w3.org/2000/svg">
<path d="M21.5713 8.89322L21.6638 8.9208L21.67 8.91372C21.9501 8.94753 22.2208 8.77518 22.3033 8.49687C22.9978 6.16339 25.1862 4.53283 27.6239 4.53283C27.9489 4.53283 28.2124 4.26929 28.2124 3.94434C28.2124 3.61939 27.9488 3.35586 27.6239 3.35586C24.5679 3.35586 21.9999 5.39061 21.1754 8.16142C21.0825 8.47302 21.2601 8.80038 21.5713 8.89322Z" fill="#92CF4F" stroke="#F9FFF9" stroke-width="0.3"/>
<path d="M33.7632 25.4306H31.1323C30.8902 25.4306 30.6938 25.2342 30.6938 24.9921C30.6938 24.75 30.8902 24.5536 31.1323 24.5536H33.7632C37.3897 24.5536 40.3403 21.603 40.3403 17.9765C40.3403 14.35 37.3897 11.3993 33.7632 11.3993H33.6999C33.5727 11.3993 33.4518 11.3442 33.3685 11.248C33.2852 11.1519 33.2476 11.0244 33.2658 10.8985C33.305 10.6254 33.3247 10.351 33.3247 10.0839C33.3247 6.94091 30.7674 4.38359 27.6244 4.38359C26.4017 4.38359 25.2357 4.7657 24.2522 5.48886C24.0361 5.64766 23.7291 5.57719 23.6042 5.33947C20.8189 0.0357739 13.5441 -0.676458 9.77246 3.93729C8.18363 5.881 7.55936 8.40945 8.05959 10.8738C8.11472 11.1459 7.90644 11.3996 7.62988 11.3996H7.45418C3.82767 11.3996 0.877 14.3503 0.877 17.9768C0.877 21.6033 3.82767 24.554 7.45418 24.554H10.085C10.3271 24.554 10.5235 24.7503 10.5235 24.9925C10.5235 25.2346 10.3271 25.4309 10.085 25.4309H7.45418C3.34403 25.4309 0 22.0869 0 17.9768C0 13.9819 3.1589 10.7108 7.10997 10.5304C6.73883 7.97377 7.44854 5.39489 9.09344 3.38231C13.1315 -1.55777 20.8702 -1.00405 24.1415 4.5045C25.1851 3.85022 26.3793 3.50699 27.6243 3.50699C31.4322 3.50699 34.4495 6.74799 34.1855 10.5345C38.1002 10.7541 41.2171 14.0079 41.2171 17.9764C41.2171 22.0869 37.8731 25.4306 33.763 25.4306L33.7632 25.4306Z" fill="#92CF4F"/>
<path d="M9.43984 24.7433C9.43984 30.8707 14.4246 35.8554 20.5519 35.8554C26.6793 35.8554 31.664 30.8707 31.664 24.7433C31.664 18.616 26.6793 13.6312 20.5519 13.6312C14.4246 13.6312 9.43984 18.616 9.43984 24.7433ZM10.617 24.7433C10.617 19.2654 15.074 14.8084 20.5519 14.8084C26.0298 14.8084 30.4869 19.2654 30.4869 24.7433C30.4869 30.2213 26.0298 34.6783 20.5519 34.6783C15.074 34.6783 10.617 30.2213 10.617 24.7433Z" fill="#92CF4F" stroke="#F9FFF9" stroke-width="0.3"/>
<path d="M20.2797 29.1577C20.2797 29.4178 20.4906 29.6288 20.7507 29.6288C21.0107 29.6288 21.2217 29.4181 21.2217 29.1577V20.8113C21.2217 20.5512 21.0108 20.3402 20.7507 20.3402C20.4906 20.3402 20.2797 20.5512 20.2797 20.8113V29.1577Z" fill="#92CF4F" stroke="#92CF4F" stroke-width="0.3"/>
<path d="M23.5437 23.6084L23.6499 23.7142C23.5578 23.8067 23.4367 23.8524 23.3167 23.8524L23.5437 23.6084ZM23.5437 23.6084C23.4811 23.6712 23.3988 23.7024 23.3167 23.7024L23.5437 23.6084ZM23.5437 23.6084L23.6497 23.7144C23.8337 23.5304 23.8337 23.2323 23.6497 23.0483L21.0816 20.4802C20.8977 20.2963 20.5993 20.2961 20.4155 20.4802M23.5437 23.6084L20.4155 20.4802M20.7486 21.4794L22.9836 23.7144C23.0755 23.8063 23.1964 23.8524 23.3167 23.8524L20.7486 21.4794ZM20.7486 21.4794L18.5136 23.7143L18.5135 23.7144L20.7486 21.4794ZM20.4155 20.4802C20.4155 20.4802 20.4155 20.4802 20.4155 20.4802M20.4155 20.4802L20.4155 20.4802M20.4155 20.4802C20.4154 20.4802 20.4154 20.4803 20.4154 20.4803L20.4155 20.4802Z" fill="#92CF4F" stroke="#92CF4F" stroke-width="0.3"/>
</svg>
