<svg width="14" height="12" viewBox="0 0 14 12" fill="none" xmlns="http://www.w3.org/2000/svg">
<path d="M11.9 3.33333C13.062 3.33333 14 4.22667 14 5.33333V9.33333H11.2V12H2.8V9.33333H0V5.33333C0 4.22667 0.938 3.33333 2.1 3.33333H2.8V0H11.2V3.33333H11.9ZM4.2 1.33333V3.33333H9.8V1.33333H4.2ZM9.8 10.6667V8H4.2V10.6667H9.8ZM11.2 8H12.6V5.33333C12.6 4.96667 12.285 4.66667 11.9 4.66667H2.1C1.715 4.66667 1.4 4.96667 1.4 5.33333V8H2.8V6.66667H11.2V8ZM11.9 5.66667C11.9 6.03333 11.585 6.33333 11.2 6.33333C10.815 6.33333 10.5 6.03333 10.5 5.66667C10.5 5.3 10.815 5 11.2 5C11.585 5 11.9 5.3 11.9 5.66667Z" fill="black"/>
</svg>
