<svg width="30" height="28" viewBox="0 0 30 28" fill="none" xmlns="http://www.w3.org/2000/svg">
<path d="M16.7852 0.798828C24.085 0.798828 29.9987 6.73895 29.9987 13.9991C29.9987 21.2593 24.085 27.1994 16.7852 27.1994C12.1519 27.1994 8.09945 24.7969 5.7366 21.1669L7.82225 19.5168C9.68349 22.5397 12.9968 24.5593 16.7984 24.5593C19.5992 24.5593 22.2852 23.4467 24.2656 21.4663C26.2461 19.4859 27.3587 16.7999 27.3587 13.9991C27.3587 11.1984 26.2461 8.51233 24.2656 6.5319C22.2852 4.55148 19.5992 3.43888 16.7984 3.43888C11.4127 3.43888 6.97743 7.47817 6.33061 12.6791H9.97389L5.03699 17.6028L0.113281 12.6791H3.66416C4.32417 6.01294 9.94749 0.798828 16.7852 0.798828ZM20.6925 11.6759C21.3525 11.6891 21.8937 12.2171 21.8937 12.8903V18.9756C21.8937 19.6356 21.3525 20.19 20.6793 20.19H13.3796C12.7064 20.19 12.1651 19.6356 12.1651 18.9756V12.8903C12.1651 12.2171 12.7064 11.6891 13.3664 11.6759V10.3426C13.3664 8.32299 15.0164 6.68615 17.0228 6.68615C19.0425 6.68615 20.6925 8.32299 20.6925 10.3426V11.6759ZM17.0228 8.53419C16.0328 8.53419 15.2144 9.33941 15.2144 10.3426V11.6759H18.8445V10.3426C18.8445 9.33941 18.0261 8.53419 17.0228 8.53419Z" fill="black"/>
</svg>
